<svg width="29" height="29" viewBox="0 0 29 29" fill="none" xmlns="http://www.w3.org/2000/svg">
<path d="M12.5454 2.01445C13.0011 -0.087142 15.9989 -0.0871415 16.4546 2.01445L18.0583 9.41089C18.2245 10.1771 18.8229 10.7755 19.5891 10.9417L26.9855 12.5454C29.0871 13.0011 29.0871 15.9989 26.9855 16.4546L19.5891 18.0583C18.8229 18.2245 18.2245 18.8229 18.0583 19.5891L16.4546 26.9855C15.9989 29.0871 13.0011 29.0871 12.5454 26.9855L10.9417 19.5891C10.7755 18.8229 10.1771 18.2245 9.41089 18.0583L2.01445 16.4546C-0.087142 15.9989 -0.0871415 13.0011 2.01445 12.5454L9.41089 10.9417C10.1771 10.7755 10.7755 10.1771 10.9417 9.41089L12.5454 2.01445Z" fill="white"/>
</svg>
