<svg width="200" height="200" viewBox="0 0 200 200" fill="none" xmlns="http://www.w3.org/2000/svg">
<path d="M52.6316 0C23.564 0 0 23.564 0 52.6316C0 73.4642 12.1037 91.4699 29.6625 100C12.1037 108.53 0 126.536 0 147.368C0 176.436 23.564 200 52.6316 200C73.4642 200 91.4699 187.896 100 170.338C108.53 187.896 126.536 200 147.368 200C176.436 200 200 176.436 200 147.368C200 126.536 187.896 108.53 170.338 100C187.896 91.4699 200 73.4642 200 52.6316C200 23.564 176.436 0 147.368 0C126.536 0 108.53 12.1037 100 29.6625C91.4699 12.1037 73.4642 0 52.6316 0Z" fill="white"/>
</svg>
