<svg width="186" height="200" viewBox="0 0 186 200" fill="none" xmlns="http://www.w3.org/2000/svg">
<path d="M65.5565 18.3565C74.8569 -6.11883 110.278 -6.11883 119.579 18.3565C124.176 48.8889 124.397 42.6329 151.408 36.3165C178.419 30 195.457 61.9307 178.419 82.04C158.042 98.8889 158.042 98.8889 178.419 117.96C195.457 138.069 177.746 168.05 151.408 163.684C126.434 154.444 126.434 154.444 119.579 181.644C110.278 206.119 74.8569 206.119 65.5565 181.644C62.088 157.778 62.088 158.982 33.7272 163.684C7.38899 168.05 -10.3217 138.069 6.71618 117.96C33.7272 102.222 33.7272 101.111 6.71617 82.04C-10.3217 61.9307 7.38899 31.9505 33.7272 36.3165C59.8303 47.7778 65.5565 48.8889 65.5565 18.3565Z" fill="white"/>
</svg>
