<svg width="624" height="624" viewBox="0 0 624 624" fill="none" xmlns="http://www.w3.org/2000/svg">
<path d="M98.4093 528.271C125.71 603.279 208.647 641.953 283.654 614.652C337.412 595.086 372.506 546.942 378.027 493.621C416.529 530.919 474.36 545.241 528.117 525.675C603.125 498.375 641.799 415.438 614.498 340.43C594.932 286.673 546.788 251.578 493.467 246.058C530.765 207.555 545.087 149.724 525.521 95.9669C498.221 20.9595 415.284 -17.7147 340.276 9.58581C286.519 29.1519 251.424 77.2959 245.904 130.617C207.401 93.3189 149.57 78.9971 95.813 98.5632C20.8055 125.864 -17.8686 208.801 9.43188 283.808C28.998 337.566 77.142 372.66 130.463 378.18C93.165 416.683 78.8431 474.514 98.4093 528.271Z" fill="#8AA8EF"/>
</svg>
