<svg width="810" height="810" viewBox="0 0 810 810" fill="none" xmlns="http://www.w3.org/2000/svg">
<path d="M73.2253 391.688C32.7841 468.946 62.6303 564.361 139.889 604.802C195.259 633.786 259.956 626.667 307.057 591.865C305.3 650.402 336.317 707.623 391.688 736.607C468.946 777.049 564.361 747.202 604.802 669.944C633.786 614.573 626.667 549.877 591.865 502.776C650.402 504.533 707.623 473.515 736.607 418.145C777.048 340.886 747.202 245.472 669.944 205.031C614.573 176.047 549.877 183.166 502.775 217.968C504.533 159.43 473.515 102.209 418.145 73.2254C340.886 32.7842 245.472 62.6304 205.031 139.889C176.047 195.259 183.166 259.956 217.967 307.057C159.43 305.3 102.209 336.317 73.2253 391.688Z" fill="#F8E79D"/>
</svg>
