<svg width="80" height="80" viewBox="0 0 80 80" fill="none" xmlns="http://www.w3.org/2000/svg">
<path d="M21.0526 0C9.42558 0 0 9.42558 0 21.0526C0 29.3857 4.84148 36.588 11.865 40C4.84148 43.412 0 50.6143 0 58.9474C0 70.5744 9.42558 80 21.0526 80C29.3857 80 36.588 75.1585 40 68.135C43.412 75.1585 50.6143 80 58.9474 80C70.5744 80 80 70.5744 80 58.9474C80 50.6143 75.1585 43.412 68.135 40C75.1585 36.588 80 29.3857 80 21.0526C80 9.42558 70.5744 0 58.9474 0C50.6143 0 43.412 4.84148 40 11.865C36.588 4.84148 29.3857 0 21.0526 0Z" fill="#3B3F7C"/>
</svg>
