<svg width="75" height="80" viewBox="0 0 75 80" fill="none" xmlns="http://www.w3.org/2000/svg">
<path d="M26.2226 7.3426C29.9427 -2.44753 44.1113 -2.44753 47.8314 7.3426C49.6704 19.5556 49.7588 17.0532 60.5632 14.5266C71.3676 12 78.1827 24.7723 71.3676 32.816C63.2169 39.5556 63.2169 39.5556 71.3676 47.184C78.1827 55.2277 71.0985 67.2198 60.5632 65.4734C50.5735 61.7778 50.5735 61.7778 47.8314 72.6574C44.1113 82.4475 29.9427 82.4475 26.2226 72.6574C24.8352 63.1111 24.8352 63.5929 13.4909 65.4734C2.9556 67.2198 -4.12869 55.2277 2.68647 47.184C13.4909 40.8889 13.4909 40.4444 2.68647 32.816C-4.12869 24.7723 2.9556 12.7802 13.4909 14.5266C23.9321 19.1111 26.2226 19.5556 26.2226 7.3426Z" fill="#564731"/>
</svg>
