<svg width="59" height="56" viewBox="0 0 59 56" fill="none" xmlns="http://www.w3.org/2000/svg">
<path d="M7.9251 11.0101C1.33905 13.9708 -1.51036 21.5179 1.56077 27.867C3.76183 32.4175 8.40663 35.1176 13.2863 35.1923C10.2091 38.844 9.36908 44.0098 11.5701 48.5602C14.6413 54.9093 22.47 57.6563 29.056 54.6956C33.7762 52.5737 36.5771 48.096 36.6546 43.3918C40.4425 46.3583 45.801 47.1681 50.5212 45.0462C57.1073 42.0856 59.9567 34.5384 56.8855 28.1893C54.6845 23.6389 50.0397 20.9387 45.16 20.864C48.2372 17.2123 49.0772 12.0466 46.8762 7.49615C43.805 1.14698 35.9763 -1.59995 29.3903 1.36072C24.6701 3.48262 21.8692 7.96036 21.7917 12.6645C18.0038 9.69801 12.6453 8.88819 7.9251 11.0101Z" fill="#8AA8EF"/>
</svg>
