<svg width="61" height="56" viewBox="0 0 61 56" fill="none" xmlns="http://www.w3.org/2000/svg">
<path d="M9.93087 12.3407C7.90125 4.82814 16.4029 -0.736236 22.8969 3.85431C29.3169 10.6813 28.2806 9.09976 33.6637 3.29483C39.0469 -2.5101 48.6963 2.70829 48.1085 10.3568C46.1516 17.7237 46.1516 17.7237 54.3632 19.2381C61.9541 21.5336 62.9236 31.7284 55.8419 34.7864C48.2389 36.4253 48.2389 36.4253 51.3297 44.2271C53.3593 51.7396 44.8577 57.304 38.3636 52.7135C33.3755 47.3575 33.5852 47.6554 27.5968 53.273C22.0355 58.4899 12.5643 53.8595 13.1521 46.211C16.8947 38.0766 16.7012 37.8019 6.8974 37.3297C-0.69352 35.0342 -1.66308 24.8394 5.4187 21.7814C13.6795 20.5146 15.2474 19.8898 9.93087 12.3407Z" fill="#3036AE"/>
</svg>
