<svg width="674" height="403" viewBox="0 0 674 403" fill="none" xmlns="http://www.w3.org/2000/svg">
<path d="M32.1341 269.363C32.1341 269.363 88.8016 388.114 177.876 364.246C245.296 346.181 329.473 207.247 300.672 144.094C281.648 102.379 249.637 85.4314 213.891 98.429C181.05 110.37 165.475 145.626 165.23 180.386C164.74 249.812 243.631 324.733 313.319 327.954C362.573 330.231 380.4 325.454 421.916 298.856C480.657 261.222 536.618 151.946 518.656 84.9109C511.179 57.0065 470.96 27.6648 435.536 38.2649C401.099 48.5694 387.859 84.8488 389.315 119.568C392.299 190.73 481.795 281.618 551.258 264.199C605.268 250.654 639.794 106.541 639.794 106.541" stroke="#F8E79D" stroke-width="70.3091"/>
</svg>
