<svg width="17" height="17" viewBox="0 0 17 17" fill="none" xmlns="http://www.w3.org/2000/svg">
<path d="M7.45453 1.82168C7.69826 0.697577 9.30174 0.697575 9.54547 1.82168L10.4033 5.77792C10.4922 6.18774 10.8123 6.50784 11.2221 6.5967L15.1783 7.45453C16.3024 7.69826 16.3024 9.30174 15.1783 9.54547L11.2221 10.4033C10.8123 10.4922 10.4922 10.8123 10.4033 11.2221L9.54547 15.1783C9.30174 16.3024 7.69826 16.3024 7.45453 15.1783L6.5967 11.2221C6.50784 10.8123 6.18774 10.4922 5.77792 10.4033L1.82168 9.54547C0.697577 9.30174 0.697575 7.69826 1.82168 7.45453L5.77792 6.5967C6.18774 6.50784 6.50784 6.18774 6.5967 5.77792L7.45453 1.82168Z" fill="#F8E79D"/>
</svg>
